<?xml version="1.0" encoding="utf-8"?>
<!-- Generator: Adobe Illustrator 28.2.0, SVG Export Plug-In . SVG Version: 6.00 Build 0)  -->
<svg version="1.1" xmlns="http://www.w3.org/2000/svg" xmlns:xlink="http://www.w3.org/1999/xlink" x="0px" y="0px"
	 viewBox="0 0 1366 768" style="enable-background:new 0 0 1366 768;" xml:space="preserve">
<style type="text/css">
	.st0{fill:none;stroke:#000000;stroke-width:3;stroke-miterlimit:10;}
	.st1{fill:none;stroke:#000000;stroke-miterlimit:10;}
</style>
<g id="Calque_1">
</g>
<g id="Calque_2">
	<path d="M675.22,361.12c-0.32,0-0.57,0.17-0.57,0.39c0,0.26,0.25,0.43,0.61,0.4c0.32,0,0.57-0.18,0.57-0.4
		C675.83,361.26,675.55,361.09,675.22,361.12z M673.1,360.77c-0.28-0.08-0.6,0.03-0.68,0.25c-0.07,0.22,0.14,0.47,0.47,0.54
		c0.29,0.11,0.62,0,0.68-0.22C673.64,361.12,673.43,360.87,673.1,360.77z M677.27,360.83c-0.32,0.08-0.54,0.29-0.51,0.54
		c0.03,0.22,0.32,0.36,0.65,0.29c0.32-0.08,0.53-0.29,0.5-0.51C677.88,360.94,677.58,360.8,677.27,360.83z M684.48,318.85
		c-15.2,0-26.83,11.53-26.83,26.73c0,12.15,7.65,22.55,18.57,26.21c1.41,0.25,1.9-0.61,1.9-1.32c0-0.68-0.03-4.43-0.03-6.73
		c0,0-7.67,1.64-9.28-3.27c0,0-1.25-3.19-3.05-4.01c0,0-2.51-1.72,0.18-1.69c0,0,2.72,0.22,4.23,2.83c2.39,4.23,6.42,3.01,7.98,2.29
		c0.26-1.75,0.97-2.97,1.76-3.69c-6.13-0.68-12.31-1.57-12.31-12.11c0-3.01,0.83-4.52,2.59-6.45c-0.29-0.71-1.22-3.65,0.28-7.44
		c2.29-0.71,7.56,2.96,7.56,2.96c2.19-0.62,4.55-0.94,6.88-0.94c2.34,0,4.69,0.32,6.88,0.94c0,0,5.28-3.69,7.57-2.96
		c1.5,3.8,0.57,6.73,0.28,7.44c1.75,1.94,2.83,3.45,2.83,6.45c0,10.57-6.46,11.42-12.58,12.11c1.01,0.86,1.86,2.51,1.86,5.08
		c0,3.7-0.03,8.26-0.03,9.16c0,0.72,0.5,1.58,1.89,1.33c10.96-3.64,18.39-14.04,18.39-26.19C712,330.38,699.67,318.85,684.48,318.85
		z M668.87,356.75c-0.17-0.18-0.42-0.26-0.57-0.11c-0.14,0.11-0.11,0.36,0.08,0.57c0.17,0.17,0.43,0.25,0.57,0.11
		C669.09,357.21,669.06,356.95,668.87,356.75z M667.59,355.67c-0.22-0.06-0.39-0.03-0.47,0.08c-0.08,0.14,0.03,0.32,0.25,0.43
		c0.18,0.11,0.4,0.07,0.47-0.08C667.92,355.96,667.81,355.78,667.59,355.67z M671.38,359.76c-0.24-0.25-0.57-0.28-0.71-0.11
		c-0.18,0.14-0.11,0.47,0.14,0.68c0.25,0.25,0.57,0.28,0.71,0.11C671.67,360.3,671.6,359.97,671.38,359.76z M670.03,358.26
		c-0.15-0.25-0.43-0.36-0.61-0.22c-0.18,0.11-0.18,0.39,0,0.65c0.18,0.25,0.47,0.36,0.61,0.25
		C670.21,358.8,670.21,358.51,670.03,358.26z"/>
</g>
<g id="Calque_3">
	<path class="st0" d="M1246.5,134.33v395.48c-2.31-0.21-4.64-0.31-7-0.31c-43.63,0-79,35.37-79,79c0,6.48,0.78,12.77,2.26,18.79
		c-2.84-0.52-5.77-0.79-8.76-0.79c-19.2,0-35.78,11.15-43.64,27.32c-1.25-0.21-2.55-0.32-3.86-0.32c-8.88,0-16.63,4.83-20.77,12
		h-85.63c-1.85-9.13-9.92-16-19.6-16c-4.2,0-8.1,1.3-11.32,3.52c-6.02-11.04-17.72-18.52-31.18-18.52c-10.2,0-19.39,4.3-25.87,11.19
		c-4.79-18.52-21.61-32.19-41.63-32.19c-9,0-17.34,2.76-24.24,7.48c-4.74-19.78-22.53-34.48-43.76-34.48c-2.52,0-5,0.21-7.41,0.61
		c-4.89-12.09-16.74-20.61-30.59-20.61c-1.01,0-2.01,0.05-3,0.14v-0.14c0-18.23-14.77-33-33-33c-11.16,0-21.02,5.54-27,14.01v-97.03
		c0.38,0.32,0.76,0.68,1.12,1.04l28.1,28.1c6.73,6.73,18.3,3.53,20.61-5.73l9.58-38.31c1.57-6.3-0.27-12.92-4.86-17.51l-25.79-25.79
		c14.33-55.66-14.72-88.24-38.34-105.83c-3.93-2.96-9.36-2.96-13.36,0c-23.62,17.59-52.67,50.17-38.33,105.83l-25.79,25.79
		c-4.59,4.59-6.44,11.21-4.86,17.51l9.58,38.31c2.34,9.29,13.85,12.49,20.61,5.73l28.1-28.1c0.21-0.21,0.42-0.41,0.63-0.6v84.18
		c-1.76-1.02-3.81-1.6-6-1.6c-6.63,0-12,5.37-12,12c0,5.02,3.08,9.31,7.44,11.11c-10.35,1.02-18.44,9.76-18.44,20.39
		c0,4.23,1.29,8.16,3.48,11.43c-3.93-1.25-8.13-1.93-12.48-1.93c-22.45,0-40.7,18.06-40.99,40.44c-3.34-1.56-7.07-2.44-11.01-2.44
		c-13.14,0-24,9.75-25.75,22.41c-3.08-1.54-6.57-2.41-10.25-2.41c-9.04,0-16.86,5.21-20.61,12.8c-4.19-3.02-9.33-4.8-14.89-4.8
		c-8.88,0-16.71,4.55-21.27,11.44c-3.86-2.8-8.6-4.44-13.73-4.44c-6.03,0-11.53,2.27-15.69,6H330.02
		c-3.3-12.38-14.59-21.5-28.02-21.5c-5.85,0-11.29,1.73-15.84,4.7C279.49,630.22,261.79,617,241,617c-6.86,0-13.38,1.44-19.28,4.03
		c-3-33.1-30.83-59.03-64.72-59.03c-12.26,0-23.72,3.39-33.5,9.29V134.33c0-17.03,13.8-30.83,30.83-30.83h1061.34
		C1232.7,103.5,1246.5,117.3,1246.5,134.33z"/>
	<path class="st0" d="M701.5,547.51c5.98-8.47,15.84-14.01,27-14.01c18.23,0,33,14.77,33,33v0.14c0.99-0.09,1.99-0.14,3-0.14
		c13.85,0,25.7,8.52,30.59,20.61c2.41-0.4,4.89-0.61,7.41-0.61c21.23,0,39.02,14.7,43.76,34.48"/>
	<path class="st0" d="M552.75,646.91c1.75-12.66,12.61-22.41,25.75-22.41c3.94,0,7.67,0.88,11.01,2.44
		c0.29-22.38,18.54-40.44,40.99-40.44c4.35,0,8.55,0.68,12.48,1.93c-2.19-3.27-3.48-7.2-3.48-11.43c0-10.63,8.09-19.37,18.44-20.39
		c-4.36-1.8-7.44-6.09-7.44-11.11c0-6.63,5.37-12,12-12c2.19,0,4.24,0.58,6,1.6"/>
	<path class="st0" d="M485.73,663.94c4.56-6.89,12.39-11.44,21.27-11.44c5.56,0,10.7,1.78,14.89,4.8
		c3.75-7.59,11.57-12.8,20.61-12.8c3.68,0,7.17,0.87,10.25,2.41"/>
	<path class="st0" d="M456.31,665.5c4.16-3.73,9.66-6,15.69-6c5.13,0,9.87,1.64,13.73,4.44"/>
	<path class="st0" d="M846.26,620.98c6.9-4.72,15.24-7.48,24.24-7.48c20.02,0,36.84,13.67,41.63,32.19
		c6.48-6.89,15.67-11.19,25.87-11.19c13.46,0,25.16,7.48,31.18,18.52c3.22-2.22,7.12-3.52,11.32-3.52c9.68,0,17.75,6.87,19.6,16"/>
	<path class="st0" d="M221.5,164.5h-67c-6.6,0-12-5.4-12-12v-21c0-6.6,5.4-12,12-12h67c6.6,0,12,5.4,12,12v21
		C233.5,159.1,228.1,164.5,221.5,164.5z"/>
	<path class="st0" d="M1191.5,149.5h-37.68c-6.6,0-12-5.4-12-12V131c0-6.6,5.4-12,12-12h37.68c6.6,0,12,5.4,12,12v6.5
		C1203.5,144.1,1198.1,149.5,1191.5,149.5z"/>
	<path class="st0" d="M1112.2,149.5h-37.68c-6.6,0-12-5.4-12-12V131c0-6.6,5.4-12,12-12h37.68c6.6,0,12,5.4,12,12v6.5
		C1124.2,144.1,1118.8,149.5,1112.2,149.5z"/>
	<path class="st0" d="M831.12,103.5c-23.38,58.04-80.22,99-146.62,99s-123.24-40.96-146.62-99H831.12z"/>
	<polygon class="st1" points="372,133.66 374.45,138.62 379.94,139.42 375.97,143.29 376.9,148.75 372,146.17 367.1,148.75 
		368.03,143.29 364.06,139.42 369.55,138.62 	"/>
	<polygon class="st1" points="440.3,174.62 444.88,177.75 450.05,175.76 448.48,181.08 451.97,185.38 446.43,185.54 443.42,190.19 
		441.56,184.96 436.21,183.54 440.6,180.16 	"/>
	<polygon class="st1" points="951.04,109.27 945.5,109.43 942.49,114.08 940.63,108.86 935.28,107.43 939.67,104.05 939.64,103.5 
		947.98,103.5 947.55,104.97 	"/>
	<path class="st1" d="M372.14,198.87c-3.39,5.04-2.05,11.88,2.99,15.27c-5.04-3.39-11.88-2.05-15.27,2.99
		c3.39-5.04,2.05-11.88-2.99-15.27C361.91,205.25,368.75,203.91,372.14,198.87z"/>
	<path class="st1" d="M485.94,139.88c-6.05,0.62-10.44,6.01-9.83,12.06c-0.62-6.05-6.01-10.44-12.06-9.83
		c6.05-0.62,10.44-6.01,9.83-12.06C474.5,136.1,479.9,140.5,485.94,139.88z"/>
	<path class="st0" d="M1034.26,149.5h-37.68c-6.6,0-12-5.4-12-12V131c0-6.6,5.4-12,12-12h37.68c6.6,0,12,5.4,12,12v6.5
		C1046.26,144.1,1040.86,149.5,1034.26,149.5z"/>
	<polygon class="st1" points="844.12,175.65 842.55,180.97 846.04,185.27 840.5,185.43 837.49,190.08 835.63,184.86 830.28,183.43 
		834.67,180.05 834.37,174.51 838.94,177.65 	"/>
	<path class="st1" d="M941.14,180.87c-3.39,5.04-2.05,11.88,2.99,15.27c-5.04-3.39-11.88-2.05-15.27,2.99
		c3.39-5.04,2.05-11.88-2.99-15.27C930.91,187.25,937.75,185.91,941.14,180.87z"/>
</g>
</svg>
