<?xml version="1.0" encoding="UTF-8"?>
<svg id="Calque_2" data-name="Calque 2" xmlns="http://www.w3.org/2000/svg" viewBox="0 0 1126 565">
  <defs>
    <style>
      .cls-1, .cls-2 {
        fill: none;
        stroke: #000;
        stroke-miterlimit: 10;
      }

      .cls-3 {
        stroke-width: 0px;
      }

      .cls-2 {
        stroke-width: 3px;
      }
    </style>
  </defs>
  <g id="Calque_2-2" data-name="Calque 2">
    <path class="cls-3" d="M553.22,259.12c-.32,0-.57.17-.57.39,0,.26.25.43.61.4.32,0,.57-.18.57-.4,0-.25-.28-.42-.61-.39ZM551.1,258.77c-.28-.08-.6.03-.68.25-.07.22.14.47.47.54.29.11.62,0,.68-.22.07-.22-.14-.47-.47-.57ZM555.27,258.83c-.32.08-.54.29-.51.54.03.22.32.36.65.29.32-.08.53-.29.5-.51-.03-.21-.33-.35-.64-.32ZM562.48,216.85c-15.2,0-26.83,11.53-26.83,26.73,0,12.15,7.65,22.55,18.57,26.21,1.41.25,1.9-.61,1.9-1.32s-.03-4.43-.03-6.73c0,0-7.67,1.64-9.28-3.27,0,0-1.25-3.19-3.05-4.01,0,0-2.51-1.72.18-1.69,0,0,2.72.22,4.23,2.83,2.39,4.23,6.42,3.01,7.98,2.29.26-1.75.97-2.97,1.76-3.69-6.13-.68-12.31-1.57-12.31-12.11,0-3.01.83-4.52,2.59-6.45-.29-.71-1.22-3.65.28-7.44,2.29-.71,7.56,2.96,7.56,2.96,2.19-.62,4.55-.94,6.88-.94s4.69.32,6.88.94c0,0,5.28-3.69,7.57-2.96,1.5,3.8.57,6.73.28,7.44,1.75,1.94,2.83,3.45,2.83,6.45,0,10.57-6.46,11.42-12.58,12.11,1.01.86,1.86,2.51,1.86,5.08,0,3.7-.03,8.26-.03,9.16,0,.72.5,1.58,1.89,1.33,10.96-3.64,18.39-14.04,18.39-26.19,0-15.2-12.33-26.73-27.52-26.73ZM546.87,254.75c-.17-.18-.42-.26-.57-.11-.14.11-.11.36.08.57.17.17.43.25.57.11.14-.11.11-.37-.08-.57ZM545.59,253.67c-.22-.06-.39-.03-.47.08-.08.14.03.32.25.43.18.11.4.07.47-.08.08-.14-.03-.32-.25-.43ZM549.38,257.76c-.24-.25-.57-.28-.71-.11-.18.14-.11.47.14.68.25.25.57.28.71.11.15-.14.08-.47-.14-.68ZM548.03,256.26c-.15-.25-.43-.36-.61-.22-.18.11-.18.39,0,.65.18.25.47.36.61.25.18-.14.18-.43,0-.68Z"/>
  </g>
  <g id="Calque_3" data-name="Calque 3">
    <path class="cls-2" d="M1124.5,32.33v395.48c-2.31-.21-4.64-.31-7-.31-43.63,0-79,35.37-79,79,0,6.48.78,12.77,2.26,18.79-2.84-.52-5.77-.79-8.76-.79-19.2,0-35.78,11.15-43.64,27.32-1.25-.21-2.55-.32-3.86-.32-8.88,0-16.63,4.83-20.77,12h-85.63c-1.85-9.13-9.92-16-19.6-16-4.2,0-8.1,1.3-11.32,3.52-6.02-11.04-17.72-18.52-31.18-18.52-10.2,0-19.39,4.3-25.87,11.19-4.79-18.52-21.61-32.19-41.63-32.19-9,0-17.34,2.76-24.24,7.48-4.74-19.78-22.53-34.48-43.76-34.48-2.52,0-5,.21-7.41.61-4.89-12.09-16.74-20.61-30.59-20.61-1.01,0-2.01.05-3,.14v-.14c0-18.23-14.77-33-33-33-11.16,0-21.02,5.54-27,14.01v-97.03c.38.32.76.68,1.12,1.04l28.1,28.1c6.73,6.73,18.3,3.53,20.61-5.73l9.58-38.31c1.57-6.3-.27-12.92-4.86-17.51l-25.79-25.79c14.33-55.66-14.72-88.24-38.34-105.83-3.93-2.96-9.36-2.96-13.36,0-23.62,17.59-52.67,50.17-38.33,105.83l-25.79,25.79c-4.59,4.59-6.44,11.21-4.86,17.51l9.58,38.31c2.34,9.29,13.85,12.49,20.61,5.73l28.1-28.1c.21-.21.42-.41.63-.6v84.18c-1.76-1.02-3.81-1.6-6-1.6-6.63,0-12,5.37-12,12,0,5.02,3.08,9.31,7.44,11.11-10.35,1.02-18.44,9.76-18.44,20.39,0,4.23,1.29,8.16,3.48,11.43-3.93-1.25-8.13-1.93-12.48-1.93-22.45,0-40.7,18.06-40.99,40.44-3.34-1.56-7.07-2.44-11.01-2.44-13.14,0-24,9.75-25.75,22.41-3.08-1.54-6.57-2.41-10.25-2.41-9.04,0-16.86,5.21-20.61,12.8-4.19-3.02-9.33-4.8-14.89-4.8-8.88,0-16.71,4.55-21.27,11.44-3.86-2.8-8.6-4.44-13.73-4.44-6.03,0-11.53,2.27-15.69,6h-126.29c-3.3-12.38-14.59-21.5-28.02-21.5-5.85,0-11.29,1.73-15.84,4.7-6.67-18.48-24.37-31.7-45.16-31.7-6.86,0-13.38,1.44-19.28,4.03-3-33.1-30.83-59.03-64.72-59.03-12.26,0-23.72,3.39-33.5,9.29V32.33C1.5,15.3,15.3,1.5,32.33,1.5h1061.34c17.03,0,30.83,13.8,30.83,30.83Z"/>
    <path class="cls-2" d="M579.5,445.51c5.98-8.47,15.84-14.01,27-14.01,18.23,0,33,14.77,33,33v.14c.99-.09,1.99-.14,3-.14,13.85,0,25.7,8.52,30.59,20.61,2.41-.4,4.89-.61,7.41-.61,21.23,0,39.02,14.7,43.76,34.48"/>
    <path class="cls-2" d="M430.75,544.91c1.75-12.66,12.61-22.41,25.75-22.41,3.94,0,7.67.88,11.01,2.44.29-22.38,18.54-40.44,40.99-40.44,4.35,0,8.55.68,12.48,1.93-2.19-3.27-3.48-7.2-3.48-11.43,0-10.63,8.09-19.37,18.44-20.39-4.36-1.8-7.44-6.09-7.44-11.11,0-6.63,5.37-12,12-12,2.19,0,4.24.58,6,1.6"/>
    <path class="cls-2" d="M363.73,561.94c4.56-6.89,12.39-11.44,21.27-11.44,5.56,0,10.7,1.78,14.89,4.8,3.75-7.59,11.57-12.8,20.61-12.8,3.68,0,7.17.87,10.25,2.41"/>
    <path class="cls-2" d="M334.31,563.5c4.16-3.73,9.66-6,15.69-6,5.13,0,9.87,1.64,13.73,4.44"/>
    <path class="cls-2" d="M724.26,518.98c6.9-4.72,15.24-7.48,24.24-7.48,20.02,0,36.84,13.67,41.63,32.19,6.48-6.89,15.67-11.19,25.87-11.19,13.46,0,25.16,7.48,31.18,18.52,3.22-2.22,7.12-3.52,11.32-3.52,9.68,0,17.75,6.87,19.6,16"/>
    <rect class="cls-2" x="20.5" y="17.5" width="91" height="45" rx="12" ry="12"/>
    <rect class="cls-2" x="1019.82" y="17" width="61.68" height="30.5" rx="12" ry="12"/>
    <rect class="cls-2" x="940.52" y="17" width="61.68" height="30.5" rx="12" ry="12"/>
    <path class="cls-2" d="M709.12,1.5c-23.38,58.04-80.22,99-146.62,99S439.26,59.54,415.88,1.5h293.24Z"/>
    <polygon class="cls-1" points="250 31.66 252.45 36.62 257.94 37.42 253.97 41.29 254.9 46.75 250 44.17 245.1 46.75 246.03 41.29 242.06 37.42 247.55 36.62 250 31.66"/>
    <polygon class="cls-1" points="318.3 72.62 322.88 75.75 328.05 73.76 326.48 79.08 329.97 83.38 324.43 83.54 321.42 88.19 319.56 82.96 314.21 81.54 318.6 78.16 318.3 72.62"/>
    <polygon class="cls-1" points="829.04 7.27 823.5 7.43 820.49 12.08 818.63 6.86 813.28 5.43 817.67 2.05 817.64 1.5 825.98 1.5 825.55 2.97 829.04 7.27"/>
    <path class="cls-1" d="M250.14,96.87c-3.39,5.04-2.05,11.88,2.99,15.27-5.04-3.39-11.88-2.05-15.27,2.99,3.39-5.04,2.05-11.88-2.99-15.27,5.04,3.39,11.88,2.05,15.27-2.99Z"/>
    <path class="cls-1" d="M363.94,37.88c-6.05.62-10.44,6.01-9.83,12.06-.62-6.05-6.01-10.44-12.06-9.83,6.05-.62,10.44-6.01,9.83-12.06.62,6.05,6.01,10.44,12.06,9.83Z"/>
    <rect class="cls-2" x="862.58" y="17" width="61.68" height="30.5" rx="12" ry="12"/>
    <polygon class="cls-1" points="722.12 73.65 720.55 78.97 724.04 83.27 718.5 83.43 715.49 88.08 713.63 82.86 708.28 81.43 712.67 78.05 712.37 72.51 716.94 75.65 722.12 73.65"/>
    <path class="cls-1" d="M819.14,78.87c-3.39,5.04-2.05,11.88,2.99,15.27-5.04-3.39-11.88-2.05-15.27,2.99,3.39-5.04,2.05-11.88-2.99-15.27,5.04,3.39,11.88,2.05,15.27-2.99Z"/>
  </g>
</svg>