<?xml version="1.0" encoding="UTF-8"?>
<svg id="Calque_2" data-name="Calque 2" xmlns="http://www.w3.org/2000/svg" viewBox="0 0 716.23 968.8">
  <defs>
    <style>
      .cls-1, .cls-2 {
        fill: none;
        stroke: #000;
        stroke-miterlimit: 10;
      }

      .cls-3 {
        stroke-width: 0px;
      }

      .cls-2 {
        stroke-width: 3px;
      }
    </style>
  </defs>
  <g id="Calque_1-2" data-name="Calque 1">
    <path class="cls-2" d="M1.12,907.47c6.21-3.75,13.49-5.9,21.27-5.9,21.53,0,39.2,16.47,41.11,37.49,3.75-1.64,7.89-2.56,12.24-2.56,13.21,0,24.45,8.4,28.69,20.13,2.89-1.88,6.34-2.98,10.06-2.98,8.53,0,15.7,5.79,17.79,13.65h80.21c2.64-2.37,6.14-3.81,9.97-3.81,3.25,0,6.26,1.04,8.72,2.82,2.89-4.37,7.86-7.26,13.5-7.26,3.54,0,6.8,1.13,9.46,3.05,2.38-4.82,7.35-8.13,13.09-8.13,2.34,0,4.55.55,6.51,1.53,1.11-8.04,8.01-14.24,16.35-14.24,2.51,0,4.88.56,7,1.55.18-14.21,11.77-25.68,26.03-25.68,2.76,0,5.43.43,7.93,1.23-1.39-2.08-2.21-4.58-2.21-7.26,0-6.75,5.13-12.31,11.71-12.95-2.77-1.15-4.73-3.87-4.73-7.06,0-4.21,3.41-7.62,7.62-7.62,1.21,0,2.34.27,3.34.77"/>
    <path class="cls-3" d="M355.4,211.67c-.09-.15-.27-.22-.38-.14-.12.07-.12.25,0,.42.11.16.3.23.38.16.12-.09.12-.28,0-.44ZM356.26,212.63c-.15-.16-.36-.18-.45-.07-.11.09-.07.3.09.43.16.16.36.18.45.07.1-.09.05-.3-.09-.43ZM353.86,210.03c-.14-.04-.25-.02-.3.05-.05.09.02.2.16.27.11.07.25.05.29-.05.05-.09-.02-.2-.15-.27ZM354.67,210.72c-.11-.12-.27-.17-.36-.07-.09.07-.07.22.05.36.1.11.27.16.36.07.09-.07.07-.24-.05-.36ZM364.58,186.64c-9.65,0-17.04,7.33-17.04,16.98,0,7.72,4.86,14.32,11.8,16.65.89.16,1.2-.39,1.2-.84s-.02-2.81-.02-4.28c0,0-4.87,1.05-5.89-2.07,0,0-.79-2.03-1.94-2.55,0,0-1.59-1.09.12-1.07,0,0,1.72.14,2.68,1.8,1.52,2.68,4.08,1.91,5.07,1.45.17-1.11.62-1.89,1.12-2.34-3.89-.44-7.82-1-7.82-7.7,0-1.91.53-2.87,1.65-4.09-.19-.45-.78-2.32.17-4.73,1.46-.45,4.81,1.88,4.81,1.88,1.39-.39,2.89-.59,4.37-.59s2.97.2,4.36.59c0,0,3.36-2.34,4.81-1.88.96,2.42.36,4.28.18,4.73,1.11,1.23,1.8,2.19,1.8,4.09,0,6.72-4.1,7.26-7.99,7.7.64.54,1.18,1.59,1.18,3.22,0,2.35-.02,5.25-.02,5.82,0,.46.32,1,1.2.84,6.96-2.31,11.68-8.91,11.68-16.63,0-9.65-7.83-16.98-17.48-16.98ZM360,213.31c-.2.05-.34.18-.32.34.02.14.2.23.41.18.21-.05.34-.18.32-.32-.02-.13-.21-.22-.41-.2ZM357.35,213.27c-.17-.05-.38.02-.43.16-.04.14.09.3.3.34.19.07.4,0,.43-.14.05-.14-.09-.3-.3-.36ZM358.7,213.49c-.2,0-.36.11-.36.25,0,.16.16.27.39.25.2,0,.36-.11.36-.25,0-.16-.18-.27-.39-.25Z"/>
    <path class="cls-2" d="M375.12,886.14c3.02-1.7,6.52-2.67,10.24-2.67,11.57,0,20.96,9.38,20.96,20.96v.09c.62-.06,1.26-.09,1.9-.09,8.8,0,16.32,5.41,19.43,13.09,1.53-.26,3.1-.39,4.71-.39,13.48,0,24.78,9.34,27.79,21.9,4.38-3,9.68-4.75,15.39-4.75,12.72,0,23.4,8.68,26.44,20.44,4.12-4.37,9.95-7.1,16.43-7.1,8.55,0,15.98,4.75,19.81,11.76,2.04-1.41,4.52-2.24,7.19-2.24,6.14,0,11.27,4.37,12.44,10.16h54.39c2.63-4.55,7.55-7.62,13.19-7.62.83,0,1.66.07,2.45.21,4.99-10.27,15.52-17.36,27.72-17.36,1.9,0,3.76.18,5.56.51-.94-3.83-1.43-7.82-1.43-11.94,0-27.71,22.46-50.17,50.17-50.17,1.5,0,2.98.06,4.45.2"/>
    <path class="cls-2" d="M1.5,298.6V21.08C1.5,10.26,10.26,1.5,21.08,1.5h674.07c10.82,0,19.58,8.76,19.58,19.58v251.17"/>
    <rect class="cls-2" x="20.57" y="11.66" width="57.8" height="28.58" rx="9.53" ry="9.53"/>
    <rect class="cls-2" x="655.25" y="11.34" width="39.17" height="19.37" rx="6.46" ry="6.46"/>
    <rect class="cls-2" x="604.88" y="11.34" width="39.17" height="19.37" rx="6.46" ry="6.46"/>
    <path class="cls-2" d="M457.92,1.5c-14.85,36.86-50.95,62.88-93.12,62.88s-78.27-26.01-93.12-62.88h186.24Z"/>
    <polygon class="cls-1" points="166.33 20.65 167.88 23.81 171.37 24.31 168.85 26.77 169.44 30.24 166.33 28.6 163.21 30.24 163.81 26.77 161.29 24.31 164.77 23.81 166.33 20.65"/>
    <polygon class="cls-1" points="209.71 46.67 212.61 48.66 215.89 47.4 214.9 50.77 217.12 53.5 213.6 53.6 211.68 56.56 210.5 53.24 207.1 52.33 209.89 50.18 209.71 46.67"/>
    <polygon class="cls-1" points="283.23 64.64 288.27 68.09 293.98 65.9 292.25 71.76 296.1 76.51 289.99 76.68 286.67 81.81 284.62 76.05 278.71 74.47 283.56 70.74 283.23 64.64"/>
    <polygon class="cls-1" points="534.08 5.16 530.56 5.27 528.65 8.22 527.47 4.9 524.07 4 526.86 1.85 526.84 1.5 532.14 1.5 531.86 2.43 534.08 5.16"/>
    <path class="cls-1" d="M166.41,62.07c-2.15,3.2-1.3,7.54,1.9,9.7-3.2-2.15-7.54-1.3-9.7,1.9,2.15-3.2,1.3-7.54-1.9-9.7,3.2,2.15,7.54,1.3,9.7-1.9Z"/>
    <path class="cls-1" d="M129.49,77.96c-1.08,1.6-.65,3.77.95,4.85-1.6-1.08-3.77-.65-4.85.95,1.08-1.6.65-3.77-.95-4.85,1.6,1.08,3.77.65,4.85-.95Z"/>
    <path class="cls-1" d="M238.69,24.61c-3.84.39-6.63,3.82-6.24,7.66-.39-3.84-3.82-6.63-7.66-6.24,3.84-.39,6.63-3.82,6.24-7.66.39,3.84,3.82,6.63,7.66,6.24Z"/>
    <rect class="cls-2" x="555.38" y="11.34" width="39.17" height="19.37" rx="6.46" ry="6.46"/>
    <polygon class="cls-1" points="466.17 47.33 465.18 50.7 467.4 53.43 463.88 53.53 461.96 56.49 460.78 53.17 457.38 52.26 460.17 50.12 459.98 46.6 462.89 48.59 466.17 47.33"/>
    <path class="cls-1" d="M527.79,50.64c-2.15,3.2-1.3,7.54,1.9,9.7-3.2-2.15-7.54-1.3-9.7,1.9,2.15-3.2,1.3-7.54-1.9-9.7,3.2,2.15,7.54,1.3,9.7-1.9Z"/>
    <path class="cls-1" d="M605.76,77.67c-3.31,4.92-2,11.6,2.92,14.91-4.92-3.31-11.6-2-14.91,2.92,3.31-4.92,2-11.6-2.92-14.91,4.92,3.31,11.6,2,14.91-2.92Z"/>
    <path class="cls-1" d="M495.51,70.18c-1.37,2.04-.95,4.73.95,6-1.9-1.27-4.54-.65-5.91,1.39,1.37-2.04.95-4.73-.95-6,1.9,1.27,4.54.65,5.91-1.39Z"/>
    <path class="cls-2" d="M354.16,873.56V273.58c-.13.12-.26.26-.4.39l-17.84,18.5c-4.3,4.46-11.61,2.34-13.09-3.77l-6.09-25.22c-1-4.14.17-8.5,3.09-11.52l16.38-16.98c-9.11-36.64,9.34-58.08,24.34-69.66,2.54-1.95,5.99-1.95,8.49,0,15,11.58,33.45,33.02,24.35,69.66l16.38,16.98c2.91,3.02,4.08,7.38,3.08,11.52l-6.08,25.22c-1.47,6.09-8.82,8.21-13.09,3.77l-17.85-18.5c-.23-.23-.47-.47-.71-.68v612.85"/>
    <line class="cls-2" x1="1.5" y1="298.6" x2="1.5" y2="906.6"/>
    <line class="cls-2" x1="714.73" y1="272.25" x2="714.73" y2="882.47"/>
    <path class="cls-2" d="M345.99,883.91c-.14-.62-.22-1.26-.22-1.92,0-4.64,3.75-8.4,8.39-8.43"/>
    <line class="cls-2" x1="354.16" y1="873.56" x2="354.16" y2="875.11"/>
    <line class="cls-2" x1="375.12" y1="886.14" x2="375.12" y2="887.44"/>
  </g>
</svg>